<svg xmlns="http://www.w3.org/2000/svg" width="83.994" height="28.942" viewBox="0 0 83.994 28.942"><g transform="translate(-97.675 -360.791)"><path d="M116.82,445.265v18.25a1.014,1.014,0,1,1-2.028,0v-3.042a9.176,9.176,0,0,1-7.574,4c-5.308,0-9.543-4.592-9.543-10.08a9.9,9.9,0,0,1,9.6-10.08,9.175,9.175,0,0,1,7.574,4v-2.982a1.045,1.045,0,0,1,1.014-1.014.894.894,0,0,1,.954.895Zm-1.968,9.185c0-4.533-3.4-8.171-7.574-8.171-4.115,0-7.575,3.638-7.575,8.171s3.459,8.171,7.575,8.171A8,8,0,0,0,114.852,454.45Z" transform="translate(0 -74.857)" fill="#007b65"/><path d="M342.513,361.8a1.044,1.044,0,0,1,1.014-1.012A1.1,1.1,0,0,1,344.6,361.8v26.857a1.044,1.044,0,0,1-1.014,1.012h0a1.044,1.044,0,0,1-1.014-1.012V361.8Z" transform="translate(-219.306 0)" fill="#007b65"/><path d="M426.033,381.825a1.044,1.044,0,0,1,1.014-1.012,1.1,1.1,0,0,1,1.074,1.012h0v.953a1.044,1.044,0,0,1-2.087.06v-1.012Zm0,6.55a1.044,1.044,0,0,1,1.014-1.012,1,1,0,0,1,1.074.893v18.28a1.044,1.044,0,0,1-1.014,1.012h0a1.044,1.044,0,0,1-1.014-1.012V388.375Z" transform="translate(-294.116 -17.935)" fill="#007b65"/><path d="M715.491,455.022a9.788,9.788,0,0,1,19.563-.716v.179a.894.894,0,0,1-.954.895h-16.64a7.959,7.959,0,0,0,7.873,7.753,7.653,7.653,0,0,0,6.561-3.7,1.034,1.034,0,0,1,1.312-.358,1.105,1.105,0,0,1,.358,1.432,9.532,9.532,0,0,1-8.171,4.592A10.029,10.029,0,0,1,715.491,455.022Zm2.087-1.61h15.328a7.738,7.738,0,0,0-7.575-6.561A7.868,7.868,0,0,0,717.579,453.412Z" transform="translate(-553.385 -75.369)" fill="#007b65"/><g transform="translate(138.493 369.222)"><circle cx="0.775" cy="0.775" r="0.775" transform="translate(8.16 9.536)" fill="#007b65"/><circle cx="0.775" cy="0.775" r="0.775" transform="translate(11.44 9.536)" fill="#007b65"/><circle cx="0.775" cy="0.775" r="0.775" transform="translate(14.661 9.536)" fill="#007b65"/><path d="M507.114,458.6a8.183,8.183,0,0,1-5.189,1.789,6.712,6.712,0,0,1-3.042-.537,7.778,7.778,0,0,1-1.849-.954.8.8,0,0,0-.466-.177l0-.006-2.087.477-.358.119-2.087.477h-.179l1.372-1.73.179-.179,1.014-1.312a1.276,1.276,0,0,0,.176-.292h.011a.884.884,0,0,0-.06-.417,10.735,10.735,0,0,1-.477-1.253,6.487,6.487,0,0,1-.417-2.386,8.378,8.378,0,0,1,13.6-6.322.949.949,0,0,0,1.312-.179,1.161,1.161,0,0,0,0-1.431,10.526,10.526,0,0,0-6.441-2.207,10.225,10.225,0,0,0-10.437,10.08,9.783,9.783,0,0,0,.775,3.877.532.532,0,0,1,.059.292h-.007a.644.644,0,0,1-.179.418l-.119.119-2.982,3.757a.81.81,0,0,0-.06.895c.06.06.06.119.119.179.179.119.358.239.537.179h.179l5.129-1.133.477-.179a.27.27,0,0,1,.288,0l0,.008c.06.06.119.06.179.119a10.455,10.455,0,0,0,12.107-.417,1.13,1.13,0,0,0,.3-1.491A1.023,1.023,0,0,0,507.114,458.6Z" transform="translate(-489.067 -442.084)" fill="#007b65"/></g></g></svg>