<svg xmlns="http://www.w3.org/2000/svg" xmlns:xlink="http://www.w3.org/1999/xlink" width="360" height="305" viewBox="0 0 360 305"><defs><filter id="a" x="-287" y="-72" width="976" height="440" filterUnits="userSpaceOnUse"><feOffset input="SourceAlpha"/><feGaussianBlur stdDeviation="24" result="b"/><feFlood flood-opacity="0.161"/><feComposite operator="in" in2="b"/><feComposite in="SourceGraphic"/></filter><clipPath id="c"><rect width="360" height="305" fill="#fff" stroke="#707070" stroke-width="1"/></clipPath><clipPath id="d"><g transform="matrix(1, 0, 0, 1, 0, 0)" filter="url(#a)"><path d="M35,0H797a35,35,0,0,1,35,35V296a0,0,0,0,1,0,0H0a0,0,0,0,1,0,0V35A35,35,0,0,1,35,0Z" transform="translate(-0.39 -0.03)" fill="#fff"/></g></clipPath><linearGradient id="e" x1="0.395" y1="0.215" x2="0.492" y2="0.941" gradientUnits="objectBoundingBox"><stop offset="0" stop-color="#ffff8a"/><stop offset="0.016" stop-color="#ffff8a"/><stop offset="0.596" stop-color="#fc4b22"/><stop offset="0.991" stop-color="#ff7600"/><stop offset="1" stop-color="#ff7600"/></linearGradient><clipPath id="f"><rect width="12" height="6" transform="translate(-0.421 0.298)" fill="#fff"/></clipPath></defs><g clip-path="url(#c)"><g transform="translate(91.39 -149.904)"><g transform="translate(-306 149.935)" clip-path="url(#d)"><path d="M67.42,696.487c-10.954,82.975-39.309,124.2-54.78,196.45C3.031,937.81-1.961,1003.47.929,1060.321l335.167.017L336.053.025S5.759-.015,5.755.006C-10.839,113.294,12.27,269.04,26.945,335.86c18.669,85,44.285,180.645,44.641,290.6A519.393,519.393,0,0,1,67.42,696.487Z" transform="translate(-229.119 295.969) rotate(-90)" fill="#007b65" opacity="0.183"/></g><g transform="translate(-93.064 149.554)"><g transform="translate(167.734 29.35)"><path d="M544.37,102.459V84.3a3.036,3.036,0,0,0-3.027-3.027H490.9A3.036,3.036,0,0,0,487.87,84.3v18.16Z" transform="translate(-487.87 -58.571)" fill="#0f262e"/><rect width="17.656" height="37.33" rx="8.828" transform="translate(19.422)" fill="#0f262e"/></g><path d="M442.226,113.134l-90.6,150.192H584.37L498.726,113.134Z" transform="translate(-274.492 -39.896)" opacity="0.332" fill="url(#e)"/><g transform="translate(220.735 82.457)"><g transform="translate(0 0)"><path d="M573.869,173.121a28.2,28.2,0,1,1,6.062,5.6l-10.866,5.832Z" transform="translate(-567.575 -126.997)" fill="#fff9f3"/></g><circle cx="3.833" cy="3.833" r="3.833" transform="translate(39.396 26.576)" fill="#007b65"/><path d="M603.763,171.371a3.833,3.833,0,1,0,3.833-3.833A3.833,3.833,0,0,0,603.763,171.371Z" transform="translate(-579.699 -140.579)" fill="#007b65"/><path d="M581.4,169.322a3.833,3.833,0,1,0,3.833-3.832A3.833,3.833,0,0,0,581.4,169.322Z" transform="translate(-572.207 -139.893)" fill="#007b65"/></g><g transform="translate(34.824 110.006)"><path d="M374.13,252.947c2.21,8.268-6.579,19.546-13.615,13.245-3.4-3.049-6.778-9.961-11.555-6.226-3.768,2.947-4.843,7.709-9.663,9.371-4.071,1.4-7.968.978-10.993-2.2-2.809-2.956-4.955-6.67-4.109-10.858,1.1-5.463,5.588-7.089,8.994-10.594,5.682-5.845-2.881-9.619-7.82-8.55-4.6,1-7.712,3.29-11.2,6.308-6.208,5.363-12.23,4.763-19.478.41-7.327-4.4-8.982-13.742-3.225-20.092,3.441-3.794,7.758-3.619,11.807-6,2.123-1.25,3.991-4.122,3.128-6.462-2.286-6.2-12.188-5.114-14.637-10.981-1.078-2.582-1.207-5.459.547-7.673l75.322,55.781Z" transform="translate(-287.999 -176.537)" fill="#007b65"/><path d="M376.247,245.391c8.554-.3,16.777-11.993,8.7-16.886-3.909-2.367-11.5-3.578-9.325-9.236,1.719-4.464,5.961-6.88,6.146-11.976.156-4.3-1.388-7.907-5.314-9.872-3.647-1.825-7.825-2.794-11.584-.763-4.9,2.649-5.152,7.412-7.511,11.693-3.934,7.139-10.042.049-10.459-4.987-.388-4.694.9-8.336,2.766-12.557,3.32-7.5.99-13.087-5.288-18.75-6.346-5.725-15.765-4.584-20.159,2.774-2.626,4.4-1.2,8.476-2.3,13.045-.577,2.4-2.779,5.02-5.269,4.877-6.6-.379-8.446-10.167-14.772-10.8-2.784-.278-5.574.438-7.18,2.761l75.322,55.781Z" transform="translate(-290.243 -168.426)" fill="#005762"/><path d="M421.078,287.555h0a.917.917,0,0,1-1.278.191L294.241,194.761a.916.916,0,0,1-.19-1.278h0a.916.916,0,0,1,1.278-.19l125.558,92.984A.917.917,0,0,1,421.078,287.555Z" transform="translate(-289.966 -176.697)" fill="#006865"/></g><g transform="translate(37.844 185.806)"><path d="M374,342.015c4.235,5.659.964,17-6.366,14.336-3.546-1.291-8.256-5.553-10.77-1.222-1.983,3.417-1.343,7.4-4.526,10.152-2.689,2.327-5.807,3.2-9.1,1.688-3.062-1.4-5.848-3.59-6.486-7.059-.832-4.526,2.1-7.151,3.638-10.884,2.559-6.226-5.164-6.487-8.621-4.15-3.222,2.179-4.9,4.892-6.65,8.278-3.11,6.018-7.911,7.408-14.8,6.3-6.969-1.121-11.108-7.774-8.647-14.409,1.472-3.965,4.835-5.158,7.206-8.23,1.244-1.611,1.793-4.385.412-5.914-3.658-4.051-10.914-.175-14.594-3.919-1.619-1.648-2.6-3.814-1.938-6.05l74.874,19.61Z" transform="translate(-292.539 -295.319)" fill="#007b65"/><path d="M374.262,329.575c6.464-2.857,9.175-14.348,1.478-15.616-3.724-.613-9.917.793-9.986-4.214-.054-3.95,2.455-7.106,1.031-11.068-1.2-3.346-3.494-5.634-7.107-5.934-3.357-.279-6.857.263-9.114,2.974-2.944,3.537-1.671,7.264-2.164,11.27-.822,6.681-7.682,3.123-9.549-.609-1.74-3.478-1.873-6.665-1.738-10.475.239-6.77-3.263-10.335-9.814-12.747-6.624-2.439-13.493,1.33-14.6,8.321-.662,4.177,1.685,6.866,2.246,10.705.294,2.014-.588,4.7-2.54,5.357-5.174,1.738-9.6-5.2-14.641-3.737-2.22.642-4.138,2.047-4.655,4.322l74.875,19.61Z" transform="translate(-292.73 -282.414)" fill="#005762"/><path d="M419.173,354.613h0a.757.757,0,0,1-.921.539L293.44,322.463a.757.757,0,0,1-.539-.921h0a.757.757,0,0,1,.921-.539l124.813,32.689A.757.757,0,0,1,419.173,354.613Z" transform="translate(-292.652 -295.335)" fill="#006865"/></g><rect width="164.569" height="105.884" rx="16.567" transform="translate(110.971 151.245)" fill="#3d312c"/><rect width="152.941" height="91.443" transform="translate(116.891 158.284)" fill="#fedb5c"/><path d="M509.891,322.408c-1.83-10.6-1.984-22.912,4.55-32.049a26.791,26.791,0,0,1,13.242-9.623c7.75-2.684,14.857-1.126,22.048,2.4,3.7,1.814,7.239,3.937,10.986,5.652a30.677,30.677,0,0,0,3.634,1.384V241.027H481.069c-3,5.99-4.358,13.424-5.969,18.94-1.3,4.435-2.724,8.991-5.123,12.974a54.485,54.485,0,0,1-10.931,12.913A52.684,52.684,0,0,1,430.564,298.1a76.926,76.926,0,0,1-19.153-.219V332.47h100.8A95.246,95.246,0,0,1,509.891,322.408Z" transform="translate(-294.521 -82.743)" fill="#fff" opacity="0.66"/><g transform="translate(139.998 116.241)"><rect width="11.415" height="19.911" rx="3.352" transform="translate(81.184 67.909) rotate(180)" fill="#db774f"/><path d="M561.644,250a1.646,1.646,0,0,0-.183-.019h-8.075a1.675,1.675,0,0,0-1.67,1.67v12.182C557.324,260.889,561.966,256.7,561.644,250Z" transform="translate(-481.524 -201.984)" fill="#b76346"/><rect width="11.415" height="19.911" rx="3.352" transform="translate(25.744 47.574)" fill="#db774f"/><path d="M487.1,249.364a1.533,1.533,0,0,1,.184-.019h8.075a1.674,1.674,0,0,1,1.67,1.669V263.2C491.422,260.253,486.781,256.068,487.1,249.364Z" transform="translate(-459.871 -201.771)" fill="#b76346"/><rect width="19.864" height="41.153" transform="translate(63.162 115.147) rotate(180)" fill="#de9371"/><rect width="10.544" height="41.153" transform="translate(53.842 115.147) rotate(180)" fill="#edc29f"/><path d="M496.737,236.071V212.83a19.9,19.9,0,0,1,19.84-19.841h0a19.9,19.9,0,0,1,19.841,19.841v40.794a19.9,19.9,0,0,1-19.841,19.84h0a19.9,19.9,0,0,1-19.84-19.84V236.071Z" transform="translate(-463.105 -182.89)" fill="#de9371"/><path d="M525.163,224.111a33.744,33.744,0,0,0-7.377-.879l-.083,0a.443.443,0,0,0-.084,0,33.419,33.419,0,0,0-7.377.874c-7.14,1.665-10.281,8.2-10.7,15.815,0,7.025-2.168,11.313,3.2,16.077,3.591,3.188,5.749,5.093,6.229,10.032.317,3.258-.2,9.518,1.769,12.182,2.382,3.224,9.529,3.023,12.633,1.019,3.519-2.274,1.956-9.883,2.3-13.4.48-4.94,4.07-7.225,7.662-10.412,5.368-4.765,2.525-8.476,2.525-15.5C535.445,232.313,532.3,225.776,525.163,224.111Z" transform="translate(-463.901 -193.022)" fill="#edc29f"/><path d="M516.7,274.306a2.513,2.513,0,0,0-.3,1.179,2.562,2.562,0,0,0,2.553,2.554h8.841a2.562,2.562,0,0,0,2.554-2.554,2.52,2.52,0,0,0-.3-1.179Z" transform="translate(-469.692 -210.133)" fill="#de9371"/><path d="M525.648,271.218h0a3.35,3.35,0,0,1-3.339-3.34v-7.072a3.35,3.35,0,0,1,3.339-3.34h0a3.35,3.35,0,0,1,3.339,3.34v7.072A3.35,3.35,0,0,1,525.648,271.218Z" transform="translate(-471.672 -204.492)" fill="#de9371"/><g transform="translate(0 4.351)"><line y1="0.031" transform="translate(28.936)" fill="none"/><path d="M551.918,360.507a56.33,56.33,0,0,0-96.851-15.714l-.5.651a56.566,56.566,0,0,0-8.406,15.063Z" transform="translate(-446.16 -231.014)" fill="#fff"/><path d="M543.45,348.913a56.873,56.873,0,0,0-12.111-11.505,37.906,37.906,0,0,0-5.625,3.7,36.987,36.987,0,0,0-6.6,7.273c-4.3,5.907-10.5,11.179-18.15,11.45a21.554,21.554,0,0,1-14.631-5.2c-6.43-5.508-9.423-13.839-14.56-20.381a56.859,56.859,0,0,0-16.709,14.1l-.5.651a56.566,56.566,0,0,0-8.406,15.063H551.918A56.537,56.537,0,0,0,543.45,348.913Z" transform="translate(-446.16 -234.566)" fill="#22726e"/></g><path d="M496.635,224.481c4.219-3.834,4.8-8.01,5.069-13.663.17-3.569.656-6.847,2.551-10.042,1.772-2.988,7.25-6.073,10.795-5.713V181.3c.294,6.515-9.329,8.986-13.335,13.123a19.875,19.875,0,0,0-5.291,9.1c-.429,1.989-.211,5.031-.211,7.2Z" transform="translate(-462.91 -178.975)" fill="#443244"/><path d="M546.127,224.481c-4.689-3.834-6.182-8.011-6.481-13.663-.19-3.569-.729-6.847-2.836-10.042-1.97-2.988-8.06-6.073-12-5.713V181.3c-.327,6.515,10.37,8.986,14.823,13.123,2.735,2.54,5.093,5.807,5.882,9.1.477,1.989.235,5.031.235,7.2Z" transform="translate(-472.507 -178.975)" fill="#443244"/><path d="M497.656,243.623l11.411-6.643a2.672,2.672,0,0,0,.962-3.643h0a2.672,2.672,0,0,0-3.643-.962l-11.41,6.643a2.672,2.672,0,0,0-.962,3.643h0A2.672,2.672,0,0,0,497.656,243.623Z" transform="translate(-462.072 -195.965)" fill="#2d1e2d"/><ellipse cx="12.594" cy="4.021" rx="12.594" ry="4.021" transform="translate(40.286 15.874)" fill="#443244"/><path d="M524.46,177.8c-4.445,2.328-6.255,9.384-2.911,14.139a15.572,15.572,0,0,0,10.108,6.711,9.473,9.473,0,0,0,5.486-.484c-2.2-.337-4.458-.764-6.229-2.305a4.593,4.593,0,0,1,.426-6.843C525.1,186.056,522.978,181.294,524.46,177.8Z" transform="translate(-470.839 -177.802)" fill="#654466"/><path d="M536.452,236.077l10.578,7.9a2.672,2.672,0,0,0,3.729-.54h0a2.672,2.672,0,0,0-.54-3.729l-10.578-7.9a2.672,2.672,0,0,0-3.729.541h0A2.672,2.672,0,0,0,536.452,236.077Z" transform="translate(-476.053 -195.719)" fill="#2d1e2d"/><path d="M.3,0,4.63,3.286,0,5.675" transform="translate(42.613 52.198) rotate(-90)" fill="none" stroke="#3d312c" stroke-linecap="round" stroke-linejoin="round" stroke-width="2.021"/><path d="M4.063,0,0,3.082,4.343,5.323" transform="translate(65.196 48.567) rotate(90)" fill="none" stroke="#3d312c" stroke-linecap="round" stroke-linejoin="round" stroke-width="1.896"/><g transform="translate(59.256 77.407) rotate(180)" clip-path="url(#f)"><path d="M9.384,4.692A4.692,4.692,0,1,1,4.692,0,4.692,4.692,0,0,1,9.384,4.692Z" transform="translate(1.199 1.387)" fill="#3d312c"/></g></g><path d="M563.011,392.163H386.82a6.732,6.732,0,0,1-6.712-6.712h0a6.732,6.732,0,0,1,6.712-6.712H563.011a6.732,6.732,0,0,1,6.712,6.712h0A6.732,6.732,0,0,1,563.011,392.163Z" transform="translate(-284.033 -128.88)" fill="#bcbcbc"/><path d="M558.358,408.7H367.568A7.589,7.589,0,0,1,360,401.135h0a7.589,7.589,0,0,1,7.567-7.567h190.79a7.589,7.589,0,0,1,7.567,7.567h0A7.589,7.589,0,0,1,558.358,408.7Z" transform="translate(-277.297 -133.848)" fill="#3d312c" opacity="0.21" style="mix-blend-mode:multiply;isolation:isolate"/><rect width="2.66" height="31.919" transform="translate(195.502)" fill="#0f262e"/><circle cx="16.624" cy="16.624" r="16.624" transform="translate(0 55.858)" fill="#419d8c" opacity="0.207"/><circle cx="8.978" cy="8.978" r="8.978" transform="translate(34.638 30.85) rotate(-76.718)" fill="#419d8c" opacity="0.142"/><circle cx="8.978" cy="8.978" r="8.978" transform="translate(287.993 36.17) rotate(-76.718)" fill="#419d8c" opacity="0.375"/><circle cx="8.978" cy="8.978" r="8.978" transform="matrix(0.228, -0.974, 0.974, 0.228, 297.139, 219.525)" fill="#ffeb52"/><g transform="translate(69.452 56.166)" opacity="0.124"><rect width="46.371" height="14.204" rx="7.102" transform="translate(0 12.533)" fill="#419d8c"/><circle cx="12.115" cy="12.115" r="12.115" transform="translate(18.381 0)" fill="#419d8c"/><circle cx="6.893" cy="6.893" r="6.893" transform="translate(6.12 17.866) rotate(-76.717)" fill="#419d8c"/></g><g transform="translate(284.893 136.8)" opacity="0.216"><path d="M669.875,235.8h26.356a5.835,5.835,0,0,0,5.818-5.819h0a5.836,5.836,0,0,0-5.818-5.819H669.875a5.836,5.836,0,0,0-5.818,5.819h0A5.835,5.835,0,0,0,669.875,235.8Z" transform="translate(-664.057 -213.892)" fill="#419d8c"/><path d="M671.6,211.625a9.927,9.927,0,1,0,14.038,0A9.927,9.927,0,0,0,671.6,211.625Z" transform="translate(-665.609 -208.718)" fill="#419d8c"/><circle cx="5.648" cy="5.648" r="5.648" transform="translate(20.537 4.792)" fill="#419d8c"/></g><circle cx="4.987" cy="4.987" r="4.987" transform="translate(277.269 294.752) rotate(-80.783)" fill="#ffeb52"/><path d="M669.445,294.3a3.491,3.491,0,1,1,3.491,3.491A3.491,3.491,0,0,1,669.445,294.3Z" transform="translate(-380.969 -99.421)" fill="#ffeb52"/><circle cx="3.99" cy="3.99" r="3.99" transform="translate(312.913 250.732)" fill="#b6ffff"/></g></g></g></svg>